<svg xmlns="http://www.w3.org/2000/svg" viewBox="0 0 197.139 197.139">
  <path d="M188.317 15.447a7.5 7.5 0 0 0-10.606 0l-33.815 33.815c-13.219-22.731-26.321-41.91-29.164-46.025a7.503 7.503 0 0 0-12.343.001C96.27 12.1 42.601 90.786 42.601 124.435a65.61 65.61 0 0 0 3.872 22.248L8.822 184.335a7.5 7.5 0 0 0 10.606 10.607L53.57 160.8c11.822 17.815 32.053 29.59 54.991 29.59 36.379 0 65.977-29.587 65.977-65.955 0-14.985-10.647-38.9-22.999-61.604l36.778-36.778a7.5 7.5 0 0 0 0-10.606zM57.601 124.435c0-21.813 32.555-75.641 50.96-103.518 6.925 10.483 15.853 24.639 24.296 39.381l-74.246 74.246a51.097 51.097 0 0 1-1.01-10.109zm101.936 0c0 28.097-22.868 50.955-50.977 50.955-18.82 0-35.278-10.263-44.104-25.478L140.42 73.95c10.695 20.022 19.117 39.389 19.117 50.485z"/>
</svg>