<svg height="512pt" viewBox="-136 0 512 512" width="512pt" xmlns="http://www.w3.org/2000/svg"><path d="m120.007812 364.597656v-274.59375h-30.003906v274.59375c-17.460937 6.191406-30 22.867188-30 42.421875 0 24.816407 20.1875 45.003907 45 45.003907 24.816406 0 45.003906-20.1875 45.003906-45.003907 0-19.554687-12.542968-36.230469-30-42.421875zm-15.003906 57.421875c-8.269531 0-15-6.726562-15-15 0-8.269531 6.730469-15 15-15 8.273438 0 15.003906 6.730469 15.003906 15 0 8.273438-6.730468 15-15.003906 15zm0 0"/><path d="m240.011719 90.003906v-30h-61.511719c-6.96875-34.195312-37.273438-60.003906-73.496094-60.003906-41.355468 0-75.003906 33.648438-75.003906 75.003906v258.53125c-19.144531 19.554688-30 45.964844-30 73.484375 0 57.738281 46.644531 104.984375 105.210938 104.980469 53.445312 0 95.242187-39.855469 103.226562-86.570312 5.800781-33.949219-4.789062-67.796876-28.429688-91.898438v-2.515625h60.003907v-30h-60.003907v-30h30.003907v-30.003906h-30.003907v-31h60.003907v-30.003907h-60.003907v-30h30.003907v-30h-30.003907v-30.003906zm-61.148438 330.371094c-5.175781 30.28125-29.90625 55.136719-60.140625 60.441406-4.613281.808594-9.195312 1.214844-13.71875 1.222656-41.582031.078126-75.003906-33.816406-75.003906-75.019531 0-39.03125 28.535156-58.46875 30.003906-60.378906v-271.636719c0-24.8125 20.1875-45.003906 45-45.003906 24.816406 0 45.003906 20.191406 45.003906 45.003906v271.636719c1.207032 1.730469 37.007813 26.015625 28.855469 73.734375zm0 0"/></svg>