<svg xmlns="http://www.w3.org/2000/svg" height="512pt" version="1.1" viewBox="0 -1 512 512" width="512pt">
  <path d="M 21.332031 254.398438 L 64 254.398438 L 64 297.066406 L 106.667969 297.066406 L 106.667969 233.066406 C 106.667969 220.265625 98.132812 211.734375 85.332031 211.734375 L 76.800781 211.734375 L 256 49.601562 L 435.199219 211.734375 L 426.667969 211.734375 C 413.867188 211.734375 405.332031 220.265625 405.332031 233.066406 L 405.332031 297.066406 L 448 297.066406 L 448 254.398438 L 490.667969 254.398438 C 509.867188 254.398438 518.398438 230.933594 505.601562 218.132812 L 270.933594 4.800781 C 262.398438 -1.601562 249.601562 -1.601562 243.199219 4.800781 L 8.535156 218.132812 C -6.398438 230.933594 2.132812 254.398438 21.332031 254.398438 Z M 21.332031 254.398438 " style=" stroke:none;fill-rule:nonzero;fill:rgb(0%,0%,0%);fill-opacity:1;" />
  <path d="M 192 147.734375 L 234.667969 147.734375 L 234.667969 190.398438 L 192 190.398438 Z M 192 147.734375 " style=" stroke:none;fill-rule:nonzero;fill:rgb(0%,0%,0%);fill-opacity:1;" />
  <path d="M 277.332031 147.734375 L 320 147.734375 L 320 190.398438 L 277.332031 190.398438 Z M 277.332031 147.734375 " style=" stroke:none;fill-rule:nonzero;fill:rgb(0%,0%,0%);fill-opacity:1;" />
  <path d="M 192 211.734375 L 234.667969 211.734375 L 234.667969 254.398438 L 192 254.398438 Z M 192 211.734375 " style=" stroke:none;fill-rule:nonzero;fill:rgb(0%,0%,0%);fill-opacity:1;" />
  <path d="M 277.332031 211.734375 L 320 211.734375 L 320 254.398438 L 277.332031 254.398438 Z M 277.332031 211.734375 " style=" stroke:none;fill-rule:nonzero;fill:rgb(0%,0%,0%);fill-opacity:1;" />
  <path d="M 484.265625 346.132812 C 458.667969 314.132812 411.734375 309.867188 379.734375 335.464844 C 375.464844 339.734375 371.199219 341.867188 369.066406 346.132812 C 358.398438 356.800781 354.132812 361.066406 341.332031 361.066406 C 328.535156 361.066406 324.265625 356.800781 313.601562 346.132812 C 288 314.132812 241.066406 309.867188 209.066406 335.464844 C 204.800781 339.734375 200.535156 341.867188 198.398438 346.132812 C 187.734375 356.800781 183.464844 361.066406 170.667969 361.066406 C 157.867188 361.066406 153.601562 356.800781 142.933594 346.132812 C 128 329.066406 106.667969 318.398438 85.332031 318.398438 C 64 318.398438 42.667969 329.066406 27.734375 346.132812 C 17.066406 356.800781 12.800781 361.066406 0 361.066406 L 0 403.734375 C 21.332031 403.734375 42.667969 393.066406 57.601562 376 C 76.800781 356.800781 93.867188 356.800781 113.066406 376 C 128 393.066406 149.332031 403.734375 170.667969 403.734375 C 192 403.734375 213.332031 393.066406 228.265625 376 C 247.464844 356.800781 264.535156 356.800781 283.734375 376 C 309.332031 408 356.265625 412.265625 388.265625 386.667969 C 392.535156 382.398438 396.800781 380.265625 398.933594 376 C 418.132812 356.800781 435.199219 356.800781 454.398438 376 C 469.332031 393.066406 490.667969 403.734375 512 403.734375 L 512 361.066406 C 499.199219 361.066406 494.933594 356.800781 484.265625 346.132812 Z M 484.265625 346.132812 " style=" stroke:none;fill-rule:nonzero;fill:rgb(0%,0%,0%);fill-opacity:1;" />
  <path d="M 426.667969 425.066406 C 405.332031 425.066406 384 435.734375 369.066406 452.800781 C 358.398438 463.464844 354.132812 467.734375 341.332031 467.734375 C 328.535156 467.734375 324.265625 463.464844 313.601562 452.800781 C 288 420.800781 241.066406 416.535156 209.066406 442.132812 C 204.800781 446.398438 200.535156 448.535156 198.398438 452.800781 C 179.199219 472 162.132812 472 142.933594 452.800781 C 128 435.734375 108.800781 425.066406 85.332031 425.066406 C 64 425.066406 42.667969 435.734375 27.734375 452.800781 C 17.066406 463.464844 12.800781 467.734375 0 467.734375 L 0 510.398438 C 21.332031 510.398438 42.667969 499.734375 57.601562 482.667969 C 76.800781 463.464844 93.867188 463.464844 113.066406 482.667969 C 128 499.734375 149.332031 510.398438 170.667969 510.398438 C 192 510.398438 213.332031 499.734375 228.265625 482.667969 C 247.464844 463.464844 264.535156 463.464844 283.734375 482.667969 C 309.332031 514.667969 356.265625 518.933594 388.265625 493.332031 C 392.535156 489.066406 396.800781 486.933594 398.933594 482.667969 C 418.132812 463.464844 435.199219 463.464844 454.398438 482.667969 C 469.332031 499.734375 490.667969 510.398438 512 510.398438 L 512 467.734375 C 499.199219 467.734375 494.933594 463.464844 484.265625 452.800781 C 469.332031 435.734375 448 425.066406 426.667969 425.066406 Z M 426.667969 425.066406 " style=" stroke:none;fill-rule:nonzero;fill:rgb(0%,0%,0%);fill-opacity:1;" />
</svg>