<svg xmlns="http://www.w3.org/2000/svg" viewBox="0 0 303.477 303.477" width="512" height="512">
  <path d="M298.604 64.209l-49.978 49.979-43.719-15.618-15.617-43.718 49.979-49.979c-32.791-10.97-70.418-3.42-96.529 22.692-25.629 25.629-33.373 62.349-23.281 94.704a44.282 44.282 0 0 0-3.93 3.476L12.884 228.389c-17.178 17.177-17.178 45.027 0 62.205 17.178 17.178 45.029 17.178 62.207 0l102.645-102.645a44.418 44.418 0 0 0 3.475-3.929c32.355 10.092 69.074 2.347 94.703-23.282 26.11-26.112 33.661-63.737 22.69-96.529z" fill="#FFF"/>
</svg>